<svg width="700" height="480" viewBox="0 0 700 480" fill="none" xmlns="http://www.w3.org/2000/svg">
  <rect width="700" height="480" fill="#FBF9F6"/>
  <rect x="1" y="1" width="698" height="478" rx="12" stroke="#E2DCD2" stroke-width="1"/>
  <rect x="48" y="48" width="604" height="384" rx="12" fill="#FFFFFF" stroke="#E2DCD2"/>
  <rect x="72" y="80" width="180" height="12" rx="3" fill="#1C2B4A"/>
  <rect x="72" y="108" width="320" height="10" rx="3" fill="#E2DCD2"/>
  <rect x="72" y="128" width="280" height="10" rx="3" fill="#E2DCD2"/>
  <rect x="72" y="168" width="100" height="32" rx="12" fill="#1C2B4A"/>
  <rect x="184" y="168" width="120" height="32" rx="12" fill="#FFFFFF" stroke="#1C2B4A"/>
  <rect x="72" y="230" width="260" height="1" fill="#E2DCD2"/>
  <rect x="72" y="250" width="80" height="8" rx="2" fill="#9A9388"/>
  <rect x="72" y="270" width="120" height="8" rx="2" fill="#6B655C"/>
  <rect x="72" y="290" width="100" height="8" rx="2" fill="#6B655C"/>
  <rect x="72" y="310" width="140" height="8" rx="2" fill="#6B655C"/>
  <rect x="380" y="168" width="248" height="220" rx="12" fill="#F4F0EA" stroke="#E2DCD2"/>
  <circle cx="420" cy="210" r="6" fill="#E9EDF4" stroke="#1C2B4A" stroke-width="1.5"/>
  <circle cx="480" cy="190" r="5" fill="#E9EDF4" stroke="#1C2B4A" stroke-width="1.5"/>
  <circle cx="540" cy="220" r="6" fill="#E9EDF4" stroke="#1C2B4A" stroke-width="1.5"/>
  <circle cx="450" cy="270" r="5" fill="#E9EDF4" stroke="#1C2B4A" stroke-width="1.5"/>
  <circle cx="520" cy="280" r="6" fill="#E9EDF4" stroke="#1C2B4A" stroke-width="1.5"/>
  <circle cx="580" cy="250" r="5" fill="#E9EDF4" stroke="#1C2B4A" stroke-width="1.5"/>
  <line x1="420" y1="210" x2="480" y2="190" stroke="#1C2B4A" stroke-width="0.75" opacity="0.3"/>
  <line x1="480" y1="190" x2="540" y2="220" stroke="#1C2B4A" stroke-width="0.75" opacity="0.3"/>
  <line x1="420" y1="210" x2="450" y2="270" stroke="#1C2B4A" stroke-width="0.75" opacity="0.3"/>
  <line x1="540" y1="220" x2="520" y2="280" stroke="#1C2B4A" stroke-width="0.75" opacity="0.3"/>
  <line x1="520" y1="280" x2="580" y2="250" stroke="#1C2B4A" stroke-width="0.75" opacity="0.3"/>
  <line x1="450" y1="270" x2="520" y2="280" stroke="#1C2B4A" stroke-width="0.75" opacity="0.3"/>
  <rect x="400" y="330" width="120" height="10" rx="3" fill="#1C2B4A" opacity="0.6"/>
  <rect x="400" y="350" width="180" height="8" rx="2" fill="#E2DCD2"/>
</svg>
