<svg width="700" height="480" viewBox="0 0 700 480" fill="none" xmlns="http://www.w3.org/2000/svg">
  <rect width="700" height="480" fill="#FBF9F6"/>
  <rect x="1" y="1" width="698" height="478" rx="12" stroke="#E2DCD2" stroke-width="1"/>
  <rect x="32" y="32" width="636" height="56" rx="12" fill="#F4F0EA" stroke="#E2DCD2"/>
  <rect x="52" y="50" width="100" height="20" rx="4" fill="#1C2B4A" opacity="0.7"/>
  <rect x="480" y="48" width="60" height="24" rx="12" fill="#E9EDF4"/>
  <rect x="552" y="48" width="60" height="24" rx="12" fill="#E9EDF4"/>
  <rect x="624" y="48" width="24" height="24" rx="12" fill="#E9EDF4"/>
  <rect x="32" y="108" width="400" height="340" rx="12" fill="#FFFFFF" stroke="#E2DCD2"/>
  <rect x="52" y="128" width="160" height="14" rx="4" fill="#1C2B4A"/>
  <rect x="52" y="156" width="320" height="8" rx="2" fill="#E2DCD2"/>
  <rect x="52" y="172" width="280" height="8" rx="2" fill="#E2DCD2"/>
  <rect x="52" y="188" width="300" height="8" rx="2" fill="#E2DCD2"/>
  <rect x="52" y="220" width="360" height="200" rx="12" fill="#F4F0EA" stroke="#E2DCD2"/>
  <rect x="72" y="240" width="80" height="8" rx="2" fill="#6B655C"/>
  <rect x="72" y="260" width="300" height="6" rx="2" fill="#EDE7DE"/>
  <rect x="72" y="276" width="280" height="6" rx="2" fill="#EDE7DE"/>
  <rect x="72" y="292" width="260" height="6" rx="2" fill="#EDE7DE"/>
  <rect x="72" y="320" width="60" height="20" rx="10" fill="#E9EDF4"/>
  <rect x="140" y="320" width="50" height="20" rx="10" fill="#E9EDF4"/>
  <rect x="198" y="320" width="70" height="20" rx="10" fill="#E9EDF4"/>
  <rect x="452" y="108" width="216" height="160" rx="12" fill="#FFFFFF" stroke="#E2DCD2"/>
  <rect x="472" y="128" width="100" height="10" rx="3" fill="#9A9388"/>
  <rect x="472" y="148" width="176" height="6" rx="2" fill="#EDE7DE"/>
  <rect x="472" y="162" width="160" height="6" rx="2" fill="#EDE7DE"/>
  <rect x="472" y="176" width="140" height="6" rx="2" fill="#EDE7DE"/>
  <rect x="452" y="288" width="216" height="160" rx="12" fill="#FFFFFF" stroke="#E2DCD2"/>
  <rect x="472" y="308" width="100" height="10" rx="3" fill="#9A9388"/>
  <rect x="472" y="328" width="176" height="6" rx="2" fill="#EDE7DE"/>
  <rect x="472" y="342" width="160" height="6" rx="2" fill="#EDE7DE"/>
  <rect x="472" y="356" width="140" height="6" rx="2" fill="#EDE7DE"/>
</svg>
