<svg width="700" height="480" viewBox="0 0 700 480" fill="none" xmlns="http://www.w3.org/2000/svg">
  <rect width="700" height="480" fill="#FBF9F6"/>
  <rect x="1" y="1" width="698" height="478" rx="12" stroke="#E2DCD2" stroke-width="1"/>
  <rect x="24" y="24" width="652" height="48" rx="12" fill="#F4F0EA" stroke="#E2DCD2"/>
  <rect x="40" y="40" width="120" height="16" rx="4" fill="#E9EDF4"/>
  <rect x="520" y="36" width="80" height="24" rx="12" fill="#1C2B4A"/>
  <rect x="24" y="96" width="200" height="360" rx="12" fill="#F4F0EA" stroke="#E2DCD2"/>
  <rect x="40" y="112" width="80" height="10" rx="3" fill="#E2DCD2"/>
  <rect x="40" y="140" width="168" height="8" rx="2" fill="#EDE7DE"/>
  <rect x="40" y="158" width="140" height="8" rx="2" fill="#EDE7DE"/>
  <rect x="40" y="176" width="160" height="8" rx="2" fill="#EDE7DE"/>
  <rect x="240" y="96" width="436" height="360" rx="12" fill="#FFFFFF" stroke="#E2DCD2"/>
  <rect x="260" y="120" width="200" height="14" rx="4" fill="#1C2B4A" opacity="0.8"/>
  <rect x="260" y="150" width="380" height="8" rx="2" fill="#E2DCD2"/>
  <rect x="260" y="168" width="340" height="8" rx="2" fill="#E2DCD2"/>
  <rect x="260" y="186" width="360" height="8" rx="2" fill="#E2DCD2"/>
  <rect x="260" y="220" width="120" height="24" rx="12" fill="#E9EDF4"/>
  <rect x="390" y="220" width="90" height="24" rx="12" fill="#E9EDF4"/>
  <rect x="260" y="270" width="396" height="160" rx="12" fill="#F4F0EA" stroke="#E2DCD2"/>
  <circle cx="290" cy="310" r="4" fill="#1C2B4A"/>
  <rect x="304" y="306" width="200" height="8" rx="2" fill="#EDE7DE"/>
  <circle cx="290" cy="340" r="4" fill="#1C2B4A"/>
  <rect x="304" y="336" width="280" height="8" rx="2" fill="#EDE7DE"/>
  <circle cx="290" cy="370" r="4" fill="#1C2B4A"/>
  <rect x="304" y="366" width="240" height="8" rx="2" fill="#EDE7DE"/>
  <line x1="280" y1="300" x2="640" y2="300" stroke="#E2DCD2" stroke-width="1"/>
  <line x1="280" y1="330" x2="640" y2="330" stroke="#E2DCD2" stroke-width="1"/>
  <line x1="280" y1="360" x2="640" y2="360" stroke="#E2DCD2" stroke-width="1"/>
</svg>
